<svg width="11" height="13" viewBox="0 0 11 13" fill="none" xmlns="http://www.w3.org/2000/svg">
<path d="M3.85156 2.77349C3.6875 2.77349 3.55469 2.63286 3.55469 2.4688C3.55469 2.30474 3.6875 2.16411 3.85156 2.16411C4.02344 2.16411 4.15625 2.30474 4.15625 2.4688C4.15625 2.63286 4.02344 2.77349 3.85156 2.77349ZM7.14844 2.77349C6.97656 2.77349 6.84375 2.63286 6.84375 2.4688C6.84375 2.30474 6.97656 2.16411 7.14844 2.16411C7.3125 2.16411 7.44531 2.30474 7.44531 2.4688C7.44531 2.63286 7.3125 2.77349 7.14844 2.77349ZM0.804688 4.21099C0.359375 4.21099 0 4.57036 0 5.00786V8.36724C0 8.81255 0.359375 9.17192 0.804688 9.17192C1.25 9.17192 1.60156 8.81255 1.60156 8.36724V5.00786C1.60156 4.57036 1.24219 4.21099 0.804688 4.21099ZM9.08594 4.35942H1.91406V9.56255C1.91406 10.0391 2.29688 10.4219 2.77344 10.4219H3.35156L3.35938 12.1954C3.35938 12.6407 3.71875 13 4.15625 13C4.60156 13 4.96094 12.6407 4.96094 12.1954V10.4219H6.03906V12.1954C6.03906 12.6407 6.39844 13 6.84375 13C7.28906 13 7.64844 12.6407 7.64844 12.1954V10.4219H8.23438C8.70313 10.4219 9.08594 10.0391 9.08594 9.56255V4.35942ZM7.27344 1.19536L7.82813 0.171923C7.85938 0.117236 7.84375 0.0469239 7.78906 0.015674C7.73438 -0.00776361 7.66406 0.00786091 7.63281 0.0625484L7.07031 1.0938C6.59375 0.882861 6.0625 0.765674 5.5 0.765674C4.9375 0.765674 4.40625 0.882861 3.92969 1.0938L3.36719 0.0625484C3.33594 0.00786091 3.26562 -0.00776361 3.21094 0.015674C3.15625 0.0469239 3.14063 0.117236 3.17188 0.171923L3.72656 1.19536C2.625 1.75786 1.88281 2.83599 1.88281 4.07817H9.10938C9.10938 2.83599 8.36719 1.75786 7.27344 1.19536ZM11 5.00786C11 4.56255 10.6406 4.21099 10.1953 4.21099C9.75781 4.21099 9.39844 4.56255 9.39844 5.00786V8.36724C9.39844 8.81255 9.75781 9.17192 10.1953 9.17192C10.6406 9.17192 11 8.81255 11 8.36724V5.00786Z" fill="white"/>
</svg>
