<svg width="27" height="23" viewBox="0 0 27 23" fill="none" xmlns="http://www.w3.org/2000/svg">
<path fill-rule="evenodd" clip-rule="evenodd" d="M5.5561 1.0508C5.55804 0.872064 5.63118 0.701302 5.75962 0.575595C5.88807 0.449888 6.06145 0.379385 6.24212 0.379395H20.7082C20.8887 0.379254 21.0619 0.449796 21.1899 0.575606C21.318 0.701415 21.3905 0.87226 21.3916 1.0508V4.74133L26.4128 6.07747C26.7489 6.16414 26.9442 6.5343 26.8466 6.89506L23.8259 18.0484L23.8252 21.3903C23.8252 21.5703 23.7529 21.743 23.6243 21.8703C23.4956 21.9975 23.3211 22.0691 23.1392 22.0691H3.80817C3.62622 22.0691 3.45173 21.9975 3.32308 21.8703C3.19442 21.743 3.12215 21.5703 3.12215 21.3903V15.5579L0.122856 7.40619C-0.00590482 7.05534 0.156102 6.67213 0.482754 6.55466L5.5561 4.72775V1.0508ZM15.97 3.29866L20.4538 4.49179V1.30513H6.49388V4.39006L14.6217 1.46325C14.9488 1.34578 15.3214 1.53634 15.4507 1.88719L15.97 3.29866ZM23.6275 6.45116C23.4988 6.32388 23.3243 6.25237 23.1424 6.25237H17.0569L16.3611 4.36151L25.8763 6.89348L23.8267 14.4612L23.8284 6.93109C23.8284 6.75108 23.7561 6.57845 23.6275 6.45116ZM1.08946 7.32159L3.12215 12.8462V6.93109C3.12215 6.7926 3.16493 6.65848 3.24324 6.54601L1.08946 7.32159ZM14.6551 2.43661L16.0592 6.25237H4.05869L14.6551 2.43661ZM20.2525 11.9541C20.2156 11.9693 20.1759 11.9771 20.1359 11.9771H14.3506V10.4708H20.1359C20.2166 10.4708 20.2941 10.5026 20.3512 10.5591C20.4083 10.6156 20.4404 10.6922 20.4404 10.7721V11.6753C20.4404 11.7149 20.4326 11.7541 20.4173 11.7907C20.4021 11.8274 20.3797 11.8606 20.3514 11.8887C20.3231 11.9167 20.2895 11.9389 20.2525 11.9541ZM20.351 17.6122C20.2939 17.6685 20.2165 17.7002 20.1359 17.7002H14.3506V16.194H20.1359C20.2166 16.194 20.2941 16.2257 20.3512 16.2822C20.4083 16.3387 20.4404 16.4153 20.4404 16.4952V17.3995C20.4402 17.4793 20.4081 17.5558 20.351 17.6122ZM21.2647 14.7499C21.2076 14.8064 21.1301 14.8381 21.0494 14.8381H14.3506V13.3319H21.0494C21.1301 13.332 21.2074 13.3638 21.2645 13.4203C21.3216 13.4767 21.3537 13.5533 21.3538 13.6331V14.5369C21.3538 14.6168 21.3218 14.6934 21.2647 14.7499ZM12.6725 14.1683C12.6716 13.939 12.6524 13.7101 12.615 13.4838H9.17485V14.8413H11.1448C10.9823 15.6688 10.2477 16.2686 9.17485 16.2686C7.97906 16.2686 7.01124 15.2678 7.01124 14.0847C7.01124 12.9017 7.98117 11.9008 9.17485 11.9008C9.69584 11.8925 10.1993 12.0871 10.5764 12.4428L11.6192 11.4111C10.9576 10.7971 10.0814 10.4603 9.17432 10.4714C8.69083 10.4656 8.21099 10.5549 7.76262 10.7339C7.31425 10.913 6.90627 11.1784 6.56231 11.5146C6.21836 11.8508 5.94528 12.2512 5.7589 12.6926C5.57252 13.1341 5.47655 13.6077 5.47655 14.0861C5.47655 14.5644 5.57252 15.038 5.7589 15.4795C5.94528 15.9209 6.21836 16.3213 6.56231 16.6575C6.90627 16.9937 7.31425 17.2591 7.76262 17.4382C8.21099 17.6172 8.69083 17.7065 9.17432 17.7007C11.2852 17.7007 12.6725 16.2331 12.6725 14.1683Z" fill="#0DD0BA"/>
</svg>
