<svg width="18" height="19" viewBox="0 0 18 19" fill="none" xmlns="http://www.w3.org/2000/svg">
<path d="M5.3792 0.269249C4.42893 0.314083 3.77999 0.465732 3.21269 0.688652C2.62555 0.917466 2.12791 1.22452 1.63277 1.72144C1.13763 2.21836 0.832719 2.71636 0.605511 3.30438C0.385627 3.87293 0.236656 4.5224 0.194679 5.4732C0.152703 6.424 0.143415 6.72962 0.148059 9.15494C0.152703 11.5803 0.16342 11.8843 0.209505 12.837C0.254875 13.7871 0.40599 14.4359 0.628911 15.0034C0.858083 15.5905 1.16478 16.088 1.66188 16.5833C2.15899 17.0786 2.65663 17.3828 3.24609 17.6103C3.81411 17.8299 4.46376 17.9796 5.41439 18.0212C6.36502 18.0628 6.671 18.0724 9.09562 18.0678C11.5202 18.0631 11.8255 18.0524 12.7781 18.0072C13.7307 17.962 14.3761 17.8099 14.9437 17.588C15.5308 17.3583 16.0287 17.0521 16.5236 16.5549C17.0186 16.0576 17.3233 15.5592 17.5504 14.9709C17.7704 14.4028 17.9199 13.7532 17.9612 12.8033C18.0028 11.85 18.0126 11.5456 18.008 9.12065C18.0033 6.69569 17.9924 6.39167 17.9473 5.43926C17.9021 4.48686 17.7508 3.84007 17.528 3.27223C17.2985 2.6851 16.9922 2.188 16.4952 1.69232C15.9983 1.19665 15.4996 0.892101 14.9114 0.66561C14.343 0.445727 13.6937 0.295863 12.7431 0.254781C11.7925 0.213698 11.4865 0.203159 9.06096 0.207803C6.63545 0.212447 6.33179 0.222807 5.3792 0.269249ZM5.48351 16.4145C4.61273 16.3766 4.13991 16.2319 3.82482 16.1108C3.40756 15.9501 3.11033 15.7557 2.79632 15.4447C2.4823 15.1338 2.28939 14.8355 2.12648 14.4191C2.00413 14.104 1.85676 13.6317 1.81604 12.761C1.77174 11.8198 1.76245 11.5372 1.75727 9.1528C1.75209 6.76838 1.7612 6.48616 1.80246 5.54465C1.83961 4.67459 1.98519 4.20124 2.10612 3.88633C2.26688 3.46854 2.46051 3.17184 2.7722 2.85801C3.0839 2.54417 3.3813 2.3509 3.79803 2.188C4.11276 2.06511 4.58504 1.919 5.45547 1.87756C6.39735 1.8329 6.67957 1.82397 9.06364 1.81879C11.4477 1.81361 11.7307 1.82254 12.6729 1.86398C13.543 1.90185 14.0165 2.04599 14.331 2.16764C14.7485 2.3284 15.0455 2.52149 15.3594 2.83372C15.6732 3.14595 15.8667 3.44228 16.0296 3.85989C16.1526 4.17373 16.2987 4.64583 16.3398 5.51679C16.3847 6.45866 16.3948 6.74106 16.3991 9.12494C16.4034 11.5088 16.395 11.7919 16.3538 12.7331C16.3157 13.6039 16.1714 14.0769 16.0501 14.3923C15.8893 14.8094 15.6955 15.1068 15.3837 15.4204C15.0718 15.7341 14.7747 15.9274 14.3578 16.0903C14.0435 16.213 13.5706 16.3595 12.7009 16.4009C11.7591 16.4452 11.4768 16.4545 9.09187 16.4597C6.7069 16.4648 6.42557 16.4552 5.48369 16.4145M12.7643 4.3645C12.7647 4.57648 12.8279 4.7836 12.946 4.95965C13.0641 5.13571 13.2317 5.2728 13.4277 5.35357C13.6237 5.43435 13.8392 5.4552 14.047 5.41347C14.2549 5.37174 14.4457 5.26932 14.5953 5.11915C14.7449 4.96898 14.8466 4.77781 14.8876 4.56982C14.9286 4.36184 14.9069 4.14637 14.8254 3.95068C14.7439 3.75499 14.6062 3.58786 14.4298 3.47044C14.2533 3.35301 14.0459 3.29056 13.8339 3.29099C13.5498 3.29155 13.2774 3.40496 13.0769 3.60628C12.8763 3.80759 12.7639 4.08032 12.7643 4.3645ZM4.49234 9.14673C4.49734 11.6796 6.55435 13.7282 9.08669 13.7234C11.619 13.7185 13.6691 11.6617 13.6642 9.12887C13.6594 6.59602 11.6019 4.54687 9.06918 4.55187C6.53649 4.55687 4.48751 6.61423 4.49234 9.14673ZM6.10101 9.14351C6.09985 8.5547 6.27331 7.97877 6.59947 7.48855C6.92563 6.99832 7.38983 6.61582 7.93338 6.38942C8.47692 6.16302 9.0754 6.10287 9.65313 6.2166C10.2309 6.33033 10.7619 6.61282 11.1791 7.02835C11.5962 7.44387 11.8808 7.97377 11.9968 8.55104C12.1129 9.12831 12.0551 9.72702 11.8308 10.2715C11.6066 10.8159 11.2259 11.2816 10.737 11.6097C10.2481 11.9378 9.67282 12.1135 9.08401 12.1147C8.69303 12.1155 8.30573 12.0393 7.94421 11.8904C7.5827 11.7416 7.25405 11.5229 6.97705 11.247C6.70004 10.9711 6.4801 10.6433 6.32979 10.2824C6.17948 9.92148 6.10174 9.53448 6.10101 9.14351Z" fill="#0DD0BA"/>
</svg>
