<svg width="19" height="19" viewBox="0 0 19 19" fill="none" xmlns="http://www.w3.org/2000/svg">
<path d="M0.282227 0.206787V3.45444C8.34451 3.45444 14.8966 10.0066 14.8966 18.0689H18.1443C18.1443 8.20412 10.147 0.206787 0.282227 0.206787ZM0.282227 5.89017V9.13782C5.21053 9.13782 9.21326 13.1405 9.21326 18.0689H12.4609C12.4609 11.3462 7.00486 5.89017 0.282227 5.89017ZM2.71796 13.1974C2.07197 13.1974 1.45243 13.454 0.995637 13.9108C0.538848 14.3676 0.282227 14.9871 0.282227 15.6331C0.282227 16.2791 0.538848 16.8987 0.995637 17.3554C1.45243 17.8122 2.07197 18.0689 2.71796 18.0689C3.36396 18.0689 3.9835 17.8122 4.44029 17.3554C4.89708 16.8987 5.1537 16.2791 5.1537 15.6331C5.1537 14.9871 4.89708 14.3676 4.44029 13.9108C3.9835 13.454 3.36396 13.1974 2.71796 13.1974Z" fill="#0DD0BA"/>
</svg>
