<svg width="19" height="16" viewBox="0 0 19 16" fill="none" xmlns="http://www.w3.org/2000/svg">
<path d="M18.0807 2.34027C17.4275 2.62182 16.718 2.82454 15.986 2.90338C16.7405 2.45289 17.3149 1.74337 17.5852 0.89871C16.8869 1.31541 16.0986 1.61949 15.2765 1.77716C14.612 1.06764 13.666 0.628418 12.6186 0.628418C10.6027 0.628418 8.9809 2.26143 8.9809 4.2661C8.9809 4.54766 9.01468 4.82921 9.07099 5.0995C6.05273 4.94183 3.36107 3.50027 1.57038 1.29289C1.25504 1.83347 1.07485 2.45289 1.07485 3.12862C1.07485 4.38999 1.71679 5.50494 2.6966 6.15815C2.0997 6.13562 1.5366 5.96669 1.05232 5.6964C1.05232 5.70766 1.05232 5.73019 1.05232 5.74145C1.05232 7.50961 2.30242 8.97369 3.96923 9.31156C3.66515 9.39039 3.33854 9.43544 3.01194 9.43544C2.77544 9.43544 2.55019 9.41292 2.32495 9.37913C2.7867 10.8207 4.1269 11.8681 5.72613 11.9019C4.47602 12.8817 2.91058 13.456 1.20999 13.456C0.905914 13.456 0.62436 13.4448 0.331543 13.411C1.94203 14.4471 3.8566 15.044 5.91758 15.044C12.6073 15.044 16.2675 9.50301 16.2675 4.69406C16.2675 4.53639 16.2675 4.37872 16.2563 4.22105C16.9658 3.70299 17.5852 3.06105 18.0807 2.34027Z" fill="#0DD0BA"/>
</svg>
