<svg width="23" height="16" viewBox="0 0 23 16" fill="none" xmlns="http://www.w3.org/2000/svg">
<path fill-rule="evenodd" clip-rule="evenodd" d="M19.6528 0.939754C20.5903 1.19126 21.3285 1.93233 21.5791 2.87343C22.0344 4.57908 22.0344 8.13784 22.0344 8.13784C22.0344 8.13784 22.0344 11.6965 21.5791 13.4024C21.3285 14.3433 20.5903 15.0844 19.6528 15.336C17.9537 15.793 11.1405 15.793 11.1405 15.793C11.1405 15.793 4.32725 15.793 2.62812 15.336C1.69072 15.0844 0.952403 14.3433 0.701864 13.4024C0.246582 11.6965 0.246582 8.13784 0.246582 8.13784C0.246582 8.13784 0.246582 4.57908 0.701864 2.87343C0.952403 1.93233 1.69072 1.19126 2.62812 0.939754C4.32725 0.482666 11.1405 0.482666 11.1405 0.482666C11.1405 0.482666 17.9537 0.482666 19.6528 0.939754ZM14.6043 8.13799L8.90974 11.3689V4.90677L14.6043 8.13799Z" fill="#0DD0BA"/>
</svg>
