<svg width="11" height="13" viewBox="0 0 11 13" fill="none" xmlns="http://www.w3.org/2000/svg">
<path d="M10.5 10.5547C10.5 8.5 9.99219 6.125 7.94531 6.125C7.3125 6.74219 6.45312 7.125 5.5 7.125C4.54688 7.125 3.6875 6.74219 3.05469 6.125C1.00781 6.125 0.5 8.5 0.5 10.5547C0.5 11.6953 1.25 12.625 2.16406 12.625H8.83594C9.75 12.625 10.5 11.6953 10.5 10.5547ZM8.5 3.625C8.5 1.96875 7.15625 0.625 5.5 0.625C3.84375 0.625 2.5 1.96875 2.5 3.625C2.5 5.28125 3.84375 6.625 5.5 6.625C7.15625 6.625 8.5 5.28125 8.5 3.625Z" fill="white"/>
</svg>
