<svg width="13" height="13" viewBox="0 0 13 13" fill="none" xmlns="http://www.w3.org/2000/svg">
<path d="M7.5 3.65625C7.5 3.51562 7.39063 3.40625 7.25 3.40625H6.75C6.60938 3.40625 6.5 3.51562 6.5 3.65625V6.40625H4.75C4.60938 6.40625 4.5 6.51563 4.5 6.65625V7.15625C4.5 7.29688 4.60938 7.40625 4.75 7.40625H7.25C7.39063 7.40625 7.5 7.29688 7.5 7.15625V3.65625ZM10.75 6.40625C10.75 8.75 8.84375 10.6563 6.5 10.6563C4.15625 10.6563 2.25 8.75 2.25 6.40625C2.25 4.0625 4.15625 2.15625 6.5 2.15625C8.84375 2.15625 10.75 4.0625 10.75 6.40625ZM12.5 6.40625C12.5 3.09375 9.8125 0.40625 6.5 0.40625C3.1875 0.40625 0.5 3.09375 0.5 6.40625C0.5 9.71875 3.1875 12.4063 6.5 12.4063C9.8125 12.4063 12.5 9.71875 12.5 6.40625Z" fill="white"/>
</svg>
